<svg xmlns="http://www.w3.org/2000/svg" width="340" height="56" viewBox="0 0 340 56"><defs><path id="d77" d="M216 0L76 0L76-686L303-686L401-335Q407-316 413-290Q419-264 425.5-238.5Q432-213 436-193L436-193L444-193Q446-210 451-233.5Q456-257 462-284Q468-311 475-336L475-336L573-686L796-686L796 0L649 0L649-325Q649-370 649.5-415.5Q650-461 651.5-495Q653-529 653-539L653-539L645-539Q643-528 635.5-498.5Q628-469 619.5-436Q611-403 604-379L604-379L497 0L367 0L259-378Q253-399 245.5-427.5Q238-456 231.5-486.5Q225-517 219-539L219-539L211-539Q212-512 213-474.5Q214-437 215-397.5Q216-358 216-325L216-325L216 0Z"/><path id="d101" d="M303 12L303 12Q216 12 157-17.5Q98-47 68-108Q38-169 38-263L38-263Q38-358 68-418.5Q98-479 156.5-508.5Q215-538 300-538L300-538Q380-538 435-509.5Q490-481 518-421.5Q546-362 546-268L546-268L546-232L179-232Q181-186 193.5-154Q206-122 232.5-106.5Q259-91 303-91L303-91Q327-91 346.5-97Q366-103 380-115Q394-127 402-145Q410-163 410-186L410-186L546-186Q546-136 528-99Q510-62 478-37.5Q446-13 401.5-0.5Q357 12 303 12ZM181-320L181-320L403-320Q403-350 395.5-372Q388-394 375-408Q362-422 343.5-428.5Q325-435 302-435L302-435Q264-435 238.5-422.5Q213-410 199.5-384.5Q186-359 181-320Z"/><path id="d115" d="M277 12L277 12Q222 12 178 0Q134-12 103-33.5Q72-55 55.5-85Q39-115 39-153L39-153L39-161Q39-165 40-167L40-167L174-167L174-159Q175-134 190-118.5Q205-103 229.5-96Q254-89 281-89L281-89Q305-89 327.5-93.5Q350-98 365.5-110Q381-122 381-141L381-141Q381-165 361.5-178Q342-191 310.5-199Q279-207 242-217L242-217Q208-225 174-235.5Q140-246 112.5-263Q85-280 68-307.5Q51-335 51-377L51-377Q51-418 69-448.5Q87-479 118.5-499Q150-519 192.5-528.5Q235-538 284-538L284-538Q330-538 370-528.5Q410-519 440-500.5Q470-482 487-454.5Q504-427 504-393L504-393L504-380Q504-374 503-372L503-372L370-372L370-380Q370-398 359-410.5Q348-423 327.5-430Q307-437 278-437L278-437Q258-437 241.5-434Q225-431 213-425Q201-419 194.5-410.5Q188-402 188-390L188-390Q188-373 202.5-362.5Q217-352 241-345Q265-338 294-330L294-330Q330-320 369.5-310.5Q409-301 443-285Q477-269 498-239.5Q519-210 519-160L519-160Q519-112 500.5-79Q482-46 449-26Q416-6 372 3Q328 12 277 12Z"/><path id="d97" d="M203 12L203 12Q177 12 147.5 6Q118 0 92-15.5Q66-31 49.5-60.5Q33-90 33-136L33-136Q33-191 57-227Q81-263 125.5-283.5Q170-304 232-312Q294-320 369-320L369-320L369-359Q369-382 361.5-399Q354-416 335.5-426Q317-436 284-436Q251-436 230.5-428Q210-420 201.5-407.5Q193-395 193-380L193-380L193-368L58-368Q57-373 57-378L57-378L57-389Q57-435 85-468.5Q113-502 164-520Q215-538 283-538L283-538Q356-538 405.5-519Q455-500 481.5-463Q508-426 508-370L508-370L508-131Q508-113 518.5-104.5Q529-96 542-96L542-96L575-96L575-5Q565 0 544 5.5Q523 11 493 11L493 11Q464 11 441.5 2.5Q419-6 404-21.5Q389-37 383-59L383-59L376-59Q359-38 334.5-22Q310-6 277.5 3Q245 12 203 12ZM250-93L250-93Q278-93 300-101.5Q322-110 337-124.5Q352-139 360.5-160Q369-181 369-205L369-205L369-234Q313-234 269-226.5Q225-219 199.5-201Q174-183 174-151L174-151Q174-133 183-120Q192-107 209-100Q226-93 250-93Z"/><path id="d103" d="M400 188L150 188Q115 188 84 173.5Q53 159 34 131Q15 103 15 64L15 64Q15 20 40.5-6.5Q66-33 98-46L98-46Q75-59 60.5-80Q46-101 46-129L46-129Q46-168 74.5-192.5Q103-217 140-224L140-224Q103-247 82.5-282.5Q62-318 62-362L62-362Q62-419 90.5-458Q119-497 172.5-517.5Q226-538 299-538L299-538Q328-538 353.5-535Q379-532 400-525L400-525Q437-547 450.5-573.5Q464-600 465-616L465-616L594-616Q594-579 580.5-552Q567-525 542-507.5Q517-490 482-482L482-482Q508-460 522-429Q536-398 536-362L536-362Q536-306 509-266.5Q482-227 432.5-206Q383-185 314-185L314-185L234-185Q210-185 198-176.5Q186-168 186-152L186-152Q186-139 196.5-129.5Q207-120 231-120L231-120L450-120Q516-120 555.5-79.5Q595-39 595 24L595 24Q595 72 570 109Q545 146 501 167Q457 188 400 188L400 188ZM208 95L208 95L393 95Q411 95 425 88.5Q439 82 447 70.5Q455 59 455 44L455 44Q455 18 439 5Q423-8 399-8L399-8L208-8Q184-8 168.5 6Q153 20 153 43L153 43Q153 66 168.5 80.5Q184 95 208 95ZM299-275L299-275Q348-275 373.5-297.5Q399-320 399-362L399-362Q399-404 373.5-426.5Q348-449 299-449L299-449Q251-449 225.5-426.5Q200-404 200-362L200-362Q200-335 211-315Q222-295 244-285Q266-275 299-275Z"/><path id="d111" d="M306 12L306 12Q220 12 160-17.5Q100-47 69-108.5Q38-170 38-263L38-263Q38-358 69-418.5Q100-479 160-508.5Q220-538 306-538L306-538Q394-538 453.5-508.5Q513-479 544-418.5Q575-358 575-263L575-263Q575-170 544-108.5Q513-47 453.5-17.5Q394 12 306 12ZM306-96L306-96Q352-96 379.5-113Q407-130 420-165Q433-200 433-251L433-251L433-275Q433-326 420-361Q407-396 379.5-413.5Q352-431 306-431L306-431Q261-431 233.5-413.5Q206-396 193-361Q180-326 180-275L180-275L180-251Q180-200 193-165Q206-130 233.5-113Q261-96 306-96Z"/><path id="d110" d="M203 0L64 0L64-526L179-526L190-454L197-454Q215-480 240.5-499Q266-518 298-528Q330-538 368-538L368-538Q420-538 459-519Q498-500 519.5-459Q541-418 541-352L541-352L541 0L402 0L402-330Q402-355 396-372.5Q390-390 378.5-401.5Q367-413 350-418Q333-423 312-423L312-423Q281-423 256-408Q231-393 217-367Q203-341 203-307L203-307L203 0Z"/><path id="d87" d="M364 0L189 0L9-686L167-686L267-277Q270-268 273-250.5Q276-233 279-214Q282-195 284-180L284-180L289-180Q291-191 292.5-205Q294-219 296.5-232.5Q299-246 301.5-258Q304-270 305-277L305-277L398-686L576-686L671-277Q674-267 677-250Q680-233 683-214Q686-195 688-180L688-180L693-180Q695-191 697.5-204Q700-217 702.5-230.5Q705-244 708-256Q711-268 713-277L713-277L812-686L955-686L774 0L604 0L503-422Q500-436 496.5-454.5Q493-473 490-491Q487-509 485-523L485-523L481-523Q479-509 476.5-490Q474-471 470.5-453Q467-435 464-422L464-422L364 0Z"/><path id="d104" d="M203 0L64 0L64-723L203-723L203-468L210-468Q227-489 250.5-504.5Q274-520 303.5-529Q333-538 368-538L368-538Q420-538 459-519Q498-500 519.5-459Q541-418 541-352L541-352L541 0L402 0L402-330Q402-355 396-372.5Q390-390 378.5-401.5Q367-413 350-418Q333-423 312-423L312-423Q281-423 256-408Q231-393 217-367Q203-341 203-307L203-307L203 0Z"/><path id="d116" d="M221 12L221 12Q171 12 140-6Q109-24 95-54.5Q81-85 81-122L81-122L81-419L16-419L16-526L86-526L112-676L220-676L220-526L316-526L316-419L220-419L220-145Q220-121 231-108.5Q242-96 267-96L267-96L316-96L316-4Q304 0 288 3.5Q272 7 254 9.5Q236 12 221 12Z"/><path id="d65" d="M160 0L6 0L270-686L454-686L718 0L557 0L508-135L209-135L160 0ZM313-424L252-255L465-255L404-424Q400-435 394.5-450.5Q389-466 383-485Q377-504 371.5-522.5Q366-541 361-556L361-556L355-556Q350-537 342-511.5Q334-486 326-462.5Q318-439 313-424L313-424Z"/><path id="d112" d="M203 178L64 178L64-526L178-526L190-455L197-455Q223-498 265-518Q307-538 358-538L358-538Q424-538 471.5-509Q519-480 544.5-419Q570-358 570-262L570-262Q570-169 544-108Q518-47 471.5-17.5Q425 12 363 12L363 12Q329 12 300 4.5Q271-3 248-19Q225-35 209-58L209-58L203-58L203 178ZM315-102L315-102Q357-102 381.5-118.5Q406-135 417-168.5Q428-202 428-251L428-251L428-274Q428-324 417-357.5Q406-391 381.5-407.5Q357-424 315-424L315-424Q276-424 251-406Q226-388 214-354Q202-320 202-272L202-272L202-255Q202-220 209-191.5Q216-163 229.5-143Q243-123 264-112.5Q285-102 315-102Z"/></defs><rect x="0.5" y="0.5" width="339" height="55" fill="#86A4F2" stroke="#86A4F2"/><g fill="#0E1114"><use href="#d77" transform="translate(20.0 34.0) scale(0.01700)"/><use href="#d101" transform="translate(34.8 34.0) scale(0.01700)"/><use href="#d115" transform="translate(44.8 34.0) scale(0.01700)"/><use href="#d115" transform="translate(54.2 34.0) scale(0.01700)"/><use href="#d97" transform="translate(63.7 34.0) scale(0.01700)"/><use href="#d103" transform="translate(73.5 34.0) scale(0.01700)"/><use href="#d101" transform="translate(83.8 34.0) scale(0.01700)"/><use href="#d111" transform="translate(97.1 34.0) scale(0.01700)"/><use href="#d110" transform="translate(107.5 34.0) scale(0.01700)"/><use href="#d87" transform="translate(121.1 34.0) scale(0.01700)"/><use href="#d104" transform="translate(137.5 34.0) scale(0.01700)"/><use href="#d97" transform="translate(147.7 34.0) scale(0.01700)"/><use href="#d116" transform="translate(157.6 34.0) scale(0.01700)"/><use href="#d115" transform="translate(163.4 34.0) scale(0.01700)"/><use href="#d65" transform="translate(172.8 34.0) scale(0.01700)"/><use href="#d112" transform="translate(185.1 34.0) scale(0.01700)"/><use href="#d112" transform="translate(195.5 34.0) scale(0.01700)"/></g><g fill="#0E1114"></g><path d="M308.3 28.6H316.6M312.9 24.8L316.6 28.6L312.9 32.3" fill="none" stroke="#0E1114" stroke-width="1.53"/></svg>